<svg width="396" height="163" viewBox="0 0 396 163" fill="none" xmlns="http://www.w3.org/2000/svg">
<g clip-path="url(#clip0_5_3)">
<path d="M209.857 54.7643C209.868 54.7868 209.883 54.8029 209.894 54.8254C209.894 54.8254 209.88 54.8013 209.857 54.7643Z" fill="#111111"/>
<path d="M211.42 52.4465C211.442 52.4674 211.465 52.4786 211.488 52.4996C211.488 52.4996 211.462 52.4786 211.42 52.4465Z" fill="#111111"/>
<path d="M211.42 52.4465C210.327 51.4517 209.076 51.9974 209.076 51.9974C210.691 51.1411 211.758 52.028 211.758 52.028C210.948 51.2747 209.923 51.4469 209.184 51.7399C208.668 51.9443 208.226 52.3 207.856 52.7281C207.856 52.7281 203.061 56.3304 200.002 53.5136C199.808 53.3366 199.564 53.2158 199.313 53.2577C198.846 53.3366 198.772 53.8484 198.772 53.8484C198.962 53.3366 199.474 53.3607 199.474 53.3607C199.153 53.4524 199.058 53.71 199.058 53.71C199.326 53.4299 199.639 53.4524 199.639 53.4524C198.965 53.6858 198.87 54.3007 198.87 54.3007C199.24 53.5941 199.807 53.5828 199.807 53.5828C199.493 53.7019 199.35 53.9707 199.35 53.9707C199.575 53.7438 199.939 53.6987 199.939 53.6987C199.371 53.9353 199.277 54.3184 199.277 54.3184C199.591 53.8677 200.103 53.8355 200.103 53.8355C199.276 54.1558 199.153 54.9494 199.153 54.9494C199.625 54.0448 200.209 54.0094 200.209 54.0094C199.694 54.2315 199.609 54.6242 199.609 54.6242C199.899 54.2122 200.373 54.1413 200.373 54.1413C199.591 54.5341 199.644 55.1457 199.644 55.1457C199.792 54.4697 200.436 54.3104 200.436 54.3104C199.958 54.658 199.905 55.0041 199.905 55.0041C200.093 54.6242 200.497 54.4681 200.497 54.4681C199.768 55.1441 199.942 56.0181 199.942 56.0181C200.053 54.6548 200.821 54.4874 200.821 54.4874C200.269 54.848 200.238 55.3501 200.238 55.3501C200.439 54.7675 200.876 54.6645 200.876 54.6645C200.246 55.1844 200.303 55.8217 200.303 55.8217C200.412 55.0926 201.109 54.7272 201.109 54.7272C200.148 55.7155 200.47 56.6764 200.47 56.6764C200.34 55.5417 201.234 54.9172 201.234 54.9172C200.736 55.5191 200.773 56.0809 200.773 56.0809C200.922 55.2777 201.495 54.9236 201.495 54.9236C200.674 56.0197 201.049 56.8149 201.049 56.8149C200.856 55.8105 201.666 55.0331 201.666 55.0331C201.024 55.9779 201.252 56.538 201.252 56.538C201.189 55.8234 201.791 55.1747 201.791 55.1747C201.154 56.2982 201.64 57.2092 201.64 57.2092C201.344 55.7815 202.062 55.1602 202.062 55.1602C201.622 56.031 201.869 56.6442 201.869 56.6442C201.748 55.8781 202.22 55.2954 202.22 55.2954C201.824 56.7505 202.295 57.6277 202.295 57.6277C201.97 56.472 202.427 55.2681 202.427 55.2681C202.24 56.3094 202.424 56.9002 202.424 56.9002C202.4 55.9763 202.601 55.4306 202.601 55.4306C202.493 56.8953 202.888 57.8804 202.888 57.8804C202.643 56.9356 202.797 55.3662 202.797 55.3662C202.809 56.4704 203.073 57.3267 203.073 57.3267C202.965 56.575 203.039 55.5369 203.039 55.5369C203.248 57.1802 203.52 58.1057 203.52 58.1057C203.341 56.9839 203.261 55.4016 203.261 55.4016C203.506 56.6893 203.707 57.2333 203.707 57.2333C203.504 56.1984 203.462 55.4596 203.462 55.4596C203.902 56.5734 203.972 58.0059 203.972 58.0059C204.056 56.5412 203.708 55.5063 203.708 55.5063C204.336 56.7907 204.386 58.1637 204.386 58.1637C204.507 56.9613 203.913 55.429 203.913 55.429C204.401 56.0728 204.619 57.3508 204.619 57.3508C204.561 56.3062 204.159 55.3952 204.159 55.3952C204.856 56.3094 205.149 58.3295 205.149 58.3295C205.012 56.3223 204.438 55.4226 204.438 55.4226C205.283 56.4591 205.445 57.61 205.445 57.61C205.302 56.171 204.576 55.2664 204.576 55.2664C205.629 56.2692 205.791 57.5569 205.791 57.5569C205.695 56.1002 204.817 55.2005 204.817 55.2005C205.651 55.759 205.941 56.8068 205.941 56.8068C205.745 55.7445 205.134 55.2101 205.134 55.2101C206.358 56.0374 206.747 57.7484 206.747 57.7484C206.536 56.097 205.341 55.1296 205.341 55.1296C206.163 55.5771 206.665 56.4913 206.665 56.4913C206.347 55.6881 205.592 55.0218 205.592 55.0218C206.685 55.6544 207.219 56.9694 207.219 56.9694C206.739 55.5932 206.099 55.128 205.931 55.0266C207.325 55.7815 207.715 56.9484 207.715 56.9484C207.357 55.5497 205.994 54.8351 205.994 54.8351C207.53 55.4387 208.222 57.0965 208.222 57.0965C207.625 55.4081 206.316 54.7884 206.316 54.7884C207.578 55.1328 208.185 56.369 208.185 56.369C207.668 55.0958 206.673 54.7449 206.432 54.6773C207.287 54.7804 207.745 55.4113 207.745 55.4113C207.425 54.782 206.627 54.5454 206.627 54.5454C207.811 54.8238 208.389 55.7284 208.389 55.7284C207.901 54.7562 206.678 54.3442 206.678 54.3442C208.339 54.7369 208.907 55.8797 208.907 55.8797C208.449 54.716 206.981 54.246 206.981 54.246C207.959 54.394 208.711 55.0636 208.711 55.0636C208.111 54.3747 207.101 54.0818 207.101 54.0818C208.619 54.2556 209.353 55.3228 209.353 55.3228C208.775 54.2267 207.241 53.9273 207.241 53.9273C208.574 53.9868 209.453 54.7803 209.453 54.7803C208.639 53.9369 207.502 53.7599 207.502 53.7599C208.365 53.7808 209.138 54.3087 209.138 54.3087C208.47 53.7212 207.649 53.5893 207.649 53.5893C209.1 53.6955 209.714 54.5325 209.857 54.7626C209.282 53.5957 207.908 53.4444 207.908 53.4444C209.105 53.5104 209.649 53.9305 209.649 53.9305C208.988 53.3752 207.956 53.2786 207.956 53.2786C208.676 53.248 209.22 53.4943 209.22 53.4943C208.7 53.203 208.144 53.1338 208.144 53.1338C209.55 53.1289 210.203 53.9643 210.313 54.1172C209.628 53.0372 208.278 52.9953 208.278 52.9953C209.06 52.9309 209.686 53.2706 209.686 53.2706C208.988 52.8585 208.418 52.8167 208.418 52.8167C210.058 52.8408 210.931 53.6617 210.931 53.6617C210.238 52.8537 208.618 52.6782 208.618 52.6782C209.495 52.5543 210.321 52.9342 210.321 52.9342C209.559 52.4497 208.642 52.5479 208.642 52.5479C210.343 52.2742 211.397 53.0002 211.397 53.0002C210.308 52.1117 208.777 52.3789 208.777 52.3789C209.704 52.0425 210.327 52.3241 210.327 52.3241C209.791 51.933 208.938 52.2115 208.938 52.2115C210.222 51.6449 211.174 52.2598 211.42 52.4465Z" fill="#111111"/>
<path d="M196.142 67.3946C196.325 67.4718 196.599 67.5121 196.939 67.3527C197.14 67.2594 197.233 67.1548 197.272 67.0614C197.331 66.9133 197.24 66.7395 197.083 66.7089C196.18 66.5302 195.627 67.0292 195.389 67.3173C195.348 67.3672 195.403 67.438 195.463 67.4107L195.475 67.4042C195.686 67.3061 195.928 67.3044 196.142 67.3946Z" fill="#111111"/>
<path d="M191.69 66.6992C191.534 66.7298 191.44 66.9053 191.501 67.0517C191.54 67.1467 191.633 67.2497 191.835 67.3431C192.176 67.5024 192.448 67.4622 192.631 67.3849C192.845 67.2948 193.087 67.2964 193.298 67.3946L193.311 67.401C193.369 67.4284 193.425 67.3576 193.385 67.3077C193.146 67.0196 192.593 66.5206 191.69 66.6992Z" fill="#111111"/>
<path d="M189.412 64.9046C188.62 66.7942 189.462 67.6376 189.462 67.6376C189.786 68.1044 190.415 68.3201 190.978 68.2557C191.316 68.2171 191.728 68.2316 192.091 68.4183C192.091 68.4183 191.611 67.9145 190.653 67.8453C190.486 67.8324 190.325 67.7712 190.198 67.6618C189.707 67.2368 188.741 66.0474 190.288 64.0901L191.13 63.0729C191.134 63.0729 189.85 63.86 189.412 64.9046Z" fill="#111111"/>
<path d="M198.344 73.5319C197.42 72.7931 196.868 72.3907 196.589 72.1959C196.452 72.101 196.279 72.0817 196.124 72.1461L194.387 72.8704L192.651 72.1444C192.498 72.0801 192.322 72.0994 192.185 72.1943C191.907 72.3875 191.355 72.7915 190.431 73.5303C188.994 74.6811 187.434 75.1833 187.434 75.1833C187.434 75.1833 188.213 75.9978 188.897 77.0295C189.581 78.0612 191.509 78.7196 191.509 78.7196C191.509 78.7196 192.852 79.0801 194.386 79.0801C195.92 79.0801 197.262 78.7196 197.262 78.7196C197.262 78.7196 199.192 78.0612 199.874 77.0295C200.558 75.9994 201.338 75.1833 201.338 75.1833C201.338 75.1833 199.781 74.6811 198.344 73.5319ZM196.279 75.098C196.205 75.1028 196.129 75.1077 196.055 75.1125L195.054 75.296C194.614 75.3765 194.167 75.3765 193.727 75.296L192.726 75.1125C192.652 75.1077 192.577 75.1028 192.503 75.098L188.218 75.2928C188.218 75.2928 190.148 75.1801 191.244 74.9145C192.34 74.6489 193.365 74.9145 193.365 74.9145C193.365 74.9145 193.929 75.0224 194.389 75.0224C194.849 75.0224 195.414 74.9145 195.414 74.9145C195.414 74.9145 196.44 74.6489 197.536 74.9145C198.632 75.1801 200.562 75.2928 200.562 75.2928L196.279 75.098Z" fill="#111111"/>
<path d="M277.2 28.3173C276.69 26.6788 275.37 25.4281 273.717 24.9726C245.292 17.0986 219.556 23.0492 219.556 23.0492C210.226 1.39557 194.267 -0.461874 186.455 0.074114C183.367 0.286578 180.376 1.21852 177.711 2.79591C170.974 6.78604 158.888 17.3738 163.495 40.497C163.495 40.497 138.928 50.1995 119.993 72.8156C118.892 74.1323 118.514 75.9109 119.024 77.5478C119.024 77.5478 139.045 75.2606 163.298 67.4493C165.001 89.4023 180.308 101.529 180.308 101.529C179.188 98.9069 178.266 96.4426 177.493 94.1071C183.78 102.298 191.566 104.468 191.566 104.468C184.717 98.696 180.421 91.7587 177.741 84.9647C180.08 87.2938 183.122 89.3041 186.872 89.758C186.872 89.758 182.731 87.5771 179.032 82.8031C180.373 83.8139 182.005 84.6686 184.056 85.2303C184.056 85.2303 180.617 83.1137 177.881 79.0222C180.46 80.5368 183.233 81.1903 183.233 81.1903C180.944 79.0366 179.362 76.1282 178.271 73.2341C177.284 70.6186 176.772 67.8469 176.594 65.0575C176.542 64.2607 176.49 63.4576 176.539 62.7429C183.454 60.0388 190.476 56.8776 197.281 53.1917C203.206 49.9822 209.358 47.1606 215.499 44.6754L215.61 48.3726C215.642 49.4173 215.7 50.4619 215.803 51.5017C215.803 51.5017 216.361 55.9457 215.84 60.7181C215.84 60.7181 214.501 73.8023 211.439 79.843C211.439 79.843 212.976 79.5485 214.539 77.1196C214.539 77.1196 214.327 82.7837 209.859 88.0487C209.859 88.0487 212.667 85.9031 214.948 82.4151C217.229 78.9272 220.448 67.4654 220.448 67.4654C219.609 74.6361 215.922 81.4768 215.922 81.4768L218.077 80.0925C219.112 79.4278 219.972 78.5248 220.585 77.4593L222.595 73.9665C230.809 70.0761 226.746 49.1259 224.857 41.1295C252.382 31.3932 277.2 28.3173 277.2 28.3173Z" fill="#111111"/>
<path d="M33.6261 128.159V129.406C32.5708 129.406 31.6114 129.742 31.5634 130.605V161.929H28.1097L6.81156 137.897V159.435C6.85953 160.298 7.81891 160.634 8.87422 160.634V161.929H0V160.634C1.05531 160.634 2.01469 160.298 2.06266 159.435V130.605C2.01469 129.742 1.05531 129.406 0 129.406V128.159H4.89281L27.1983 152.815V130.605C27.1503 129.742 26.1909 129.406 25.1356 129.406V128.159H33.6261ZM63.8524 155.453H65.4833V161.929H41.5949V160.682C42.6982 160.682 43.7055 160.298 43.6576 159.339V130.222C43.6096 129.262 42.6022 128.879 41.5949 128.879V127.631H65.3874V134.203H63.7565C63.7085 133.244 62.7012 130.941 60.2547 130.941H48.8382V143.125H59.0076C60.5426 142.981 61.2141 142.502 61.2621 141.35H62.4133V147.73H61.2621C61.2141 146.579 60.5426 146.099 59.0076 145.955H48.7902V158.715H60.3507C62.7971 158.715 63.8044 156.413 63.8524 155.453ZM94.1267 144.037C96.1893 145.092 100.411 146.147 100.411 152.959C100.411 158.955 94.0787 161.929 89.042 161.929H73.2123V160.682C74.0278 160.682 74.8432 160.442 75.1311 159.962L75.179 130.078C74.8912 129.454 74.0757 129.214 73.2123 129.214V127.967H87.9387C93.599 127.967 99.2593 130.701 99.2593 136.314C99.2593 141.542 96.2373 142.933 94.1267 144.037ZM80.1198 130.558L80.1678 142.694C82.3264 142.646 86.4517 142.55 88.0826 142.55C91.1526 142.55 93.9828 140.055 93.9828 136.698C93.9828 132.38 90.0014 130.558 87.459 130.558H80.1198ZM89.2339 159.099C92.112 159.051 94.9901 156.844 94.9901 152C94.9901 148.834 91.1526 145.092 88.0826 145.092L80.2637 145.14V154.014C80.2637 159.627 82.95 159.099 89.2339 159.099ZM138.504 127.631V128.879C137.4 128.879 136.393 129.262 136.441 130.222V149.793C136.441 155.07 133.947 162.601 123.202 162.601C112.073 162.601 109.243 155.07 109.243 150.608V130.222C109.291 129.262 108.283 128.879 107.18 128.879V127.631H117.062V128.879C115.958 128.879 114.951 129.262 114.999 130.222V150.177C114.999 154.398 116.534 159.243 123.202 159.243C129.869 159.243 130.877 154.398 130.877 150.417V130.222C130.925 129.262 129.917 128.879 128.814 128.879V127.631H138.504ZM167.675 155.309H169.306V161.929H146.233V160.682C147.24 160.682 148.247 160.298 148.295 159.339V130.222C148.343 129.262 147.336 128.879 146.233 128.879V127.631H155.491V128.879C154.435 128.879 153.524 129.214 153.428 130.03L153.476 158.571H164.173C166.619 158.571 167.627 156.269 167.675 155.309ZM208.646 159.723C208.982 160.394 209.893 160.682 210.805 160.682V161.929H201.547V160.682C202.506 160.682 202.842 160.346 202.698 159.579L199.148 149.889H184.902L181.16 159.723C181.064 160.394 181.4 160.682 182.311 160.682V161.929H174.636V160.682C175.5 160.682 176.411 160.442 176.795 159.818L176.939 159.435V159.339V159.387L188.931 129.07L196.126 126.72L208.502 159.435L208.646 159.723ZM185.381 147.586H198.525L192.193 130.366L185.381 147.586ZM252.358 136.218C251.974 132.14 248.712 129.886 244.299 130.078C238.543 130.366 236.768 136.554 241.517 139.096C242.62 139.672 244.587 140.535 247.609 142.07C251.686 144.133 256.387 147.059 256.483 151.712C256.627 158.044 252.981 162.313 244.491 162.313C238.83 162.313 236.192 160.586 234.417 158.907V152.911H236.096C236.576 156.748 240.365 159.387 244.299 159.387C247.849 159.387 250.535 157.852 250.583 153.678C250.679 148.738 246.889 147.395 242.812 145.572C240.126 144.373 235.137 142.646 234.129 138.041C232.786 131.853 238.207 127.44 243.675 127.056C247.705 126.768 251.062 127.919 253.941 130.174C253.941 130.174 254.084 134.875 254.084 136.218H252.358ZM263.253 127.679H289.204V134.251H287.573C287.477 133.292 286.469 130.989 284.071 130.989H278.986V159.339C278.938 160.298 279.946 160.682 281.049 160.682V161.929H271.263V160.682C272.367 160.682 273.374 160.298 273.326 159.339V130.989H268.385C265.987 130.989 264.979 133.292 264.883 134.251H263.253V127.679ZM312.714 162.936C302.929 162.936 295.973 154.782 295.973 144.756C295.973 135.21 302.929 127.056 312.714 127.056C322.452 127.056 329.407 135.21 329.407 144.756C329.407 154.782 322.452 162.936 312.714 162.936ZM312.906 160.298C319.43 160.298 323.219 152.911 323.219 144.756C323.219 137.129 319.43 129.742 312.906 129.742C306.382 129.742 302.593 137.129 302.593 144.756C302.593 152.911 306.382 160.298 312.906 160.298ZM362.656 159.435C363.567 160.346 364.335 160.682 365.342 160.682V161.929H358.386L349.464 148.978H344.667V159.339C344.667 160.298 345.675 160.682 346.73 160.682V161.929H337.376V160.682C338.432 160.682 339.439 160.298 339.439 159.339V130.03C339.247 129.31 338.336 129.023 337.424 129.023V127.775H350.088C358.147 127.775 362.368 132.236 362.368 138.185C362.368 144.133 358.147 147.826 354.645 147.826L362.656 159.435ZM349.8 145.955C353.829 146.003 356.804 142.262 356.804 137.705C356.804 133.004 352.87 130.605 349.512 130.605C345.867 130.605 344.811 130.414 344.811 132.332V145.908L349.8 145.955ZM394.369 155.453H396V161.929H372.112V160.682C373.215 160.682 374.222 160.298 374.174 159.339V130.222C374.126 129.262 373.119 128.879 372.112 128.879V127.631H395.904V134.203H394.273C394.225 133.244 393.218 130.941 390.771 130.941H379.355V143.125H389.524C391.059 142.981 391.731 142.502 391.779 141.35H392.93V147.73H391.779C391.731 146.579 391.059 146.099 389.524 145.955H379.307V158.715H390.867C393.314 158.715 394.321 156.413 394.369 155.453Z" fill="#111111"/>
</g>
<defs>
<clipPath id="clip0_5_3">
<rect width="396" height="162.936" fill="white"/>
</clipPath>
</defs>
</svg>
